<svg width="1203" height="378" viewBox="0 0 1203 378" fill="none" xmlns="http://www.w3.org/2000/svg">
<path d="M429.35 177.744C425.738 184.968 415.658 190.008 405.158 190.008C388.946 190.008 378.95 177.912 378.95 159.264C378.95 141.876 387.518 129.612 406.418 129.612C419.858 129.612 429.098 135.744 429.098 145.152C429.098 150.528 426.074 154.14 421.874 154.14C411.962 154.14 419.606 134.568 407.426 134.568C398.606 134.568 392.39 144.816 392.39 157.836C392.39 171.696 399.446 180.936 409.946 180.936C415.574 180.936 421.37 178.248 424.73 174.216C428.93 169.176 432.29 171.948 429.35 177.744ZM460.042 175.896V161.448C451.894 163.8 446.686 170.016 446.686 177.324C446.686 181.776 448.618 184.38 451.222 184.38C454.162 184.38 457.69 181.02 460.042 175.896ZM460.042 186.48V184.968C456.598 188.664 451.81 190.848 446.182 190.848C438.622 190.848 433.246 186.9 433.246 180.348C433.246 171.024 443.83 162.288 460.042 158.004C459.958 152.544 458.194 149.94 454.666 149.94C446.854 149.94 451.054 162.792 442.234 162.792C438.706 162.792 436.522 160.776 436.522 157.332C436.522 150.78 444.586 146.16 455.254 146.16C466.342 146.16 473.482 151.116 473.482 159.6V177.66C473.482 181.02 477.682 178.752 477.682 180.852C477.682 183.708 469.45 189.84 464.41 189.84C462.058 189.84 460.042 188.496 460.042 186.48ZM493.78 155.148C493.78 162.96 517.636 164.388 517.636 177.156C517.636 184.38 510.076 189.756 499.072 189.756C489.244 189.756 482.02 185.388 482.02 179.004C482.02 175.392 484.288 173.208 487.9 173.208C496.384 173.208 492.016 185.472 498.988 185.472C501.928 185.472 504.196 183.12 504.196 180.684C504.196 172.872 480.34 172.032 480.34 159.012C480.34 151.704 487.9 146.244 498.904 146.244C508.648 146.244 515.956 150.612 515.956 156.996C515.956 160.608 513.688 162.792 510.076 162.792C501.592 162.792 505.96 150.528 499.072 150.528C496.048 150.528 493.78 152.796 493.78 155.148ZM547.734 175.896V161.448C539.586 163.8 534.378 170.016 534.378 177.324C534.378 181.776 536.31 184.38 538.914 184.38C541.854 184.38 545.382 181.02 547.734 175.896ZM547.734 186.48V184.968C544.29 188.664 539.502 190.848 533.874 190.848C526.314 190.848 520.938 186.9 520.938 180.348C520.938 171.024 531.522 162.288 547.734 158.004C547.65 152.544 545.886 149.94 542.358 149.94C534.546 149.94 538.746 162.792 529.926 162.792C526.398 162.792 524.214 160.776 524.214 157.332C524.214 150.78 532.278 146.16 542.946 146.16C554.034 146.16 561.174 151.116 561.174 159.6V177.66C561.174 181.02 565.374 178.752 565.374 180.852C565.374 183.708 557.142 189.84 552.102 189.84C549.75 189.84 547.734 188.496 547.734 186.48ZM602.138 189C600.626 189 599.618 187.908 599.618 186.396C599.618 183.54 602.978 185.388 602.978 177.24V142.044C602.978 133.896 599.618 135.744 599.618 132.888C599.618 131.46 600.626 130.368 602.138 130.368H617.258C618.686 130.368 619.694 131.46 619.694 132.888C619.694 135.744 616.418 133.896 616.418 142.044V157.836H636.494V142.044C636.494 133.896 633.134 135.744 633.134 132.888C633.134 131.46 634.142 130.368 635.654 130.368H650.774C652.286 130.368 653.294 131.46 653.294 132.888C653.294 135.744 649.934 133.896 649.934 142.044V177.24C649.934 185.388 653.294 183.54 653.294 186.396C653.294 187.908 652.286 189 650.774 189H635.654C634.142 189 633.134 187.908 633.134 186.396C633.134 183.54 636.494 185.388 636.494 177.24V162.876H616.418V177.24C616.418 185.388 619.694 183.54 619.694 186.396C619.694 187.908 618.686 189 617.258 189H602.138ZM676.963 150.444C672.679 150.444 669.823 157.836 669.823 168.756C669.823 179.592 672.679 186.648 676.879 186.648C681.247 186.648 684.187 179.508 684.187 168.588C684.187 157.752 681.331 150.444 676.963 150.444ZM677.047 190.848C662.935 190.848 656.383 182.028 656.383 168.504C656.383 155.148 662.767 146.244 676.879 146.244C691.075 146.244 697.627 155.148 697.627 168.756C697.627 182.112 691.243 190.848 677.047 190.848ZM720.988 150.444C716.704 150.444 716.368 157.836 716.368 161.616C716.368 165.228 716.704 171.864 720.4 172.368C720.652 172.368 720.904 172.368 721.156 172.368C725.272 172.116 725.692 165.228 725.692 161.28C725.692 157.752 725.356 150.444 720.988 150.444ZM709.732 173.796C704.608 170.688 702.928 165.564 702.928 161.448C702.928 155.148 706.792 146.244 720.904 146.244C722.584 146.244 724.096 146.328 725.44 146.58C726.7 146.748 727.876 147.084 728.968 147.42C729.976 147.336 730.732 147 731.152 146.412C732.664 143.976 725.776 141.876 728.8 137.088C730.312 134.736 732.664 134.232 735.184 135.912C738.88 138.264 739.804 143.052 737.62 146.58C736.528 148.26 735.016 149.184 733.252 149.604C737.62 152.796 739.132 157.668 739.132 161.616C739.132 167.832 735.352 176.4 721.408 176.568C719.308 176.568 717.124 176.4 714.94 175.896C712.672 176.064 711.328 176.904 711.328 177.996C711.328 182.952 738.544 170.184 738.544 191.856C738.544 200.508 734.176 205.884 727.204 205.884C723.256 205.884 711.328 207.564 711.328 199.92C711.328 196.056 714.352 193.032 718.72 193.032C725.608 193.032 726.28 200.844 730.648 200.844C732.832 200.844 734.428 198.828 734.428 196.224C734.428 184.128 701.248 200.928 701.248 184.464C701.248 179.424 704.44 175.728 709.732 173.796ZM769.3 175.896V161.448C761.152 163.8 755.944 170.016 755.944 177.324C755.944 181.776 757.876 184.38 760.48 184.38C763.42 184.38 766.948 181.02 769.3 175.896ZM769.3 186.48V184.968C765.856 188.664 761.068 190.848 755.44 190.848C747.88 190.848 742.504 186.9 742.504 180.348C742.504 171.024 753.088 162.288 769.3 158.004C769.216 152.544 767.452 149.94 763.924 149.94C756.112 149.94 760.312 162.792 751.492 162.792C747.964 162.792 745.78 160.776 745.78 157.332C745.78 150.78 753.844 146.16 764.512 146.16C775.6 146.16 782.74 151.116 782.74 159.6V177.66C782.74 181.02 786.94 178.752 786.94 180.852C786.94 183.708 778.708 189.84 773.668 189.84C771.316 189.84 769.3 188.496 769.3 186.48ZM792.538 189C791.026 189 790.018 187.908 790.018 186.396C790.018 183.54 793.378 185.388 793.378 177.24V159.264C793.378 155.904 789.178 158.172 789.178 156.072C789.178 153.216 797.41 147.084 802.45 147.084C804.802 147.084 806.818 148.428 806.818 150.444V151.2C808.498 148.092 811.354 146.244 814.882 146.244C820.51 146.244 825.214 150.78 825.214 156.576C825.214 160.524 823.03 162.792 819.334 162.792C811.774 162.792 814.378 153.552 810.514 153.636C809.002 153.636 807.574 155.064 806.818 157.584V177.24C806.818 185.388 810.094 183.54 810.094 186.396C810.094 187.908 809.086 189 807.658 189H792.538ZM355.495 212.328H353.863C352.327 212.856 350.743 213.72 350.743 216.168V236.28C350.743 240.936 352.663 239.88 352.663 241.512C352.663 242.376 352.087 243 351.223 243H342.583C341.719 243 341.191 242.376 341.191 241.512C341.191 239.88 343.063 240.936 343.063 236.28V216.168C343.063 213.72 341.527 212.856 339.991 212.328H338.695C334.039 212.328 335.095 221.448 332.599 221.448C331.687 221.448 331.015 220.296 331.015 218.568V210.936C331.015 210.072 331.639 209.496 335.095 209.496H359.095C362.551 209.496 363.127 210.072 363.127 210.936V218.568C363.127 220.296 362.503 221.448 361.591 221.448C359.095 221.448 360.151 212.328 355.495 212.328ZM374.106 220.968C371.658 220.968 370.026 225.192 370.026 231.432C370.026 237.624 371.658 241.656 374.058 241.656C376.554 241.656 378.234 237.576 378.234 231.336C378.234 225.144 376.602 220.968 374.106 220.968ZM374.154 244.056C366.09 244.056 362.346 239.016 362.346 231.288C362.346 223.656 365.994 218.568 374.058 218.568C382.17 218.568 385.914 223.656 385.914 231.432C385.914 239.064 382.266 244.056 374.154 244.056ZM404.399 238.056V224.808C403.487 222.696 402.095 221.448 400.415 221.448C397.535 221.448 395.855 225.528 395.855 231.576C395.855 237.48 397.487 241.656 400.415 241.656C402.095 241.656 403.487 240.312 404.399 238.056ZM412.079 237C412.079 238.92 414.479 237.624 414.479 238.824C414.479 240.456 409.775 243.96 406.895 243.96C405.599 243.96 404.447 243.192 404.399 242.088C402.719 243.336 400.655 244.056 398.351 244.056C391.919 244.056 388.175 238.968 388.175 231.24C388.175 223.56 391.823 218.568 399.215 218.568C401.087 218.568 402.911 218.856 404.399 219.672V216.36C404.399 214.44 401.999 215.736 401.999 214.536C401.999 212.904 406.703 209.448 409.583 209.448C410.927 209.448 412.079 210.216 412.079 211.32V237ZM427.966 220.968C425.518 220.968 423.886 225.192 423.886 231.432C423.886 237.624 425.518 241.656 427.918 241.656C430.414 241.656 432.094 237.576 432.094 231.336C432.094 225.144 430.462 220.968 427.966 220.968ZM428.014 244.056C419.95 244.056 416.206 239.016 416.206 231.288C416.206 223.656 419.854 218.568 427.918 218.568C436.03 218.568 439.774 223.656 439.774 231.432C439.774 239.064 436.126 244.056 428.014 244.056ZM449.571 223.656C449.571 228.12 463.203 228.936 463.203 236.232C463.203 240.36 458.883 243.432 452.595 243.432C446.979 243.432 442.851 240.936 442.851 237.288C442.851 235.224 444.147 233.976 446.211 233.976C451.059 233.976 448.563 240.984 452.547 240.984C454.227 240.984 455.523 239.64 455.523 238.248C455.523 233.784 441.891 233.304 441.891 225.864C441.891 221.688 446.211 218.568 452.499 218.568C458.067 218.568 462.243 221.064 462.243 224.712C462.243 226.776 460.947 228.024 458.883 228.024C454.035 228.024 456.531 221.016 452.595 221.016C450.867 221.016 449.571 222.312 449.571 223.656ZM491.539 216.504C491.539 224.28 508.531 223.656 508.531 233.832C508.531 239.784 502.723 243.432 494.851 243.432C487.747 243.432 483.235 240.408 483.235 236.04C483.235 233.352 484.963 231.624 487.315 231.624C492.547 231.624 489.571 240.552 495.715 240.552C498.403 240.552 500.851 238.872 500.851 235.896C500.851 228.072 483.859 229.032 483.859 218.952C483.859 213 489.763 209.016 496.675 209.016C502.867 209.016 506.995 212.136 506.995 216.6C506.995 219.384 505.363 221.304 503.059 221.304C497.923 221.304 500.899 211.848 496.003 211.848C493.939 211.848 491.539 213.576 491.539 216.504ZM522.278 220.968C519.83 220.968 518.198 225.192 518.198 231.432C518.198 237.624 519.83 241.656 522.23 241.656C524.726 241.656 526.406 237.576 526.406 231.336C526.406 225.144 524.774 220.968 522.278 220.968ZM522.326 244.056C514.262 244.056 510.518 239.016 510.518 231.288C510.518 223.656 514.166 218.568 522.23 218.568C530.342 218.568 534.086 223.656 534.086 231.432C534.086 239.064 530.438 244.056 522.326 244.056ZM554.155 219.048C557.227 219.048 559.531 220.68 560.443 223.224C562.555 220.776 565.387 219.048 568.507 219.048C572.491 219.048 575.227 221.736 575.227 225.768V236.04C575.227 237.96 577.627 236.664 577.627 237.864C577.627 239.496 572.923 243 570.043 243C568.699 243 567.595 242.232 567.595 241.08V227.688C567.595 226.008 566.395 224.856 564.619 224.856C563.323 224.856 562.027 225.432 560.875 226.488V236.28C560.875 240.936 562.795 239.88 562.795 241.512C562.795 242.376 562.219 243 561.355 243H552.715C551.851 243 551.275 242.376 551.275 241.512C551.275 239.88 553.195 240.936 553.195 236.28V227.688C553.195 226.008 551.995 224.856 550.219 224.856C548.779 224.856 547.195 225.624 546.043 226.968V236.28C546.043 240.936 547.915 239.88 547.915 241.512C547.915 242.376 547.339 243 546.523 243H537.883C537.019 243 536.443 242.376 536.443 241.512C536.443 239.88 538.363 240.936 538.363 236.28V226.008C538.363 224.088 535.963 225.384 535.963 224.184C535.963 222.552 540.667 219.048 543.547 219.048C544.891 219.048 546.043 219.816 546.043 220.968V223.272C548.107 220.776 550.987 219.048 554.155 219.048ZM591.091 220.968C588.643 220.968 587.011 225.192 587.011 231.432C587.011 237.624 588.643 241.656 591.043 241.656C593.539 241.656 595.219 237.576 595.219 231.336C595.219 225.144 593.587 220.968 591.091 220.968ZM591.139 244.056C583.075 244.056 579.331 239.016 579.331 231.288C579.331 223.656 582.979 218.568 591.043 218.568C599.155 218.568 602.899 223.656 602.899 231.432C602.899 239.064 599.251 244.056 591.139 244.056ZM612.696 223.656C612.696 228.12 626.328 228.936 626.328 236.232C626.328 240.36 622.008 243.432 615.72 243.432C610.104 243.432 605.976 240.936 605.976 237.288C605.976 235.224 607.272 233.976 609.336 233.976C614.184 233.976 611.688 240.984 615.672 240.984C617.352 240.984 618.648 239.64 618.648 238.248C618.648 233.784 605.016 233.304 605.016 225.864C605.016 221.688 609.336 218.568 615.624 218.568C621.192 218.568 625.368 221.064 625.368 224.712C625.368 226.776 624.072 228.024 622.008 228.024C617.16 228.024 619.656 221.016 615.72 221.016C613.992 221.016 612.696 222.312 612.696 223.656ZM647.896 243C647.032 243 646.456 242.376 646.456 241.512C646.456 239.88 648.376 240.936 648.376 236.28V216.168C648.376 211.512 646.456 212.568 646.456 210.936C646.456 210.12 647.032 209.496 647.896 209.496H656.536C657.352 209.496 657.928 210.12 657.928 210.936C657.928 212.568 656.056 211.512 656.056 216.168V225.192H667.528V216.168C667.528 211.512 665.608 212.568 665.608 210.936C665.608 210.12 666.184 209.496 667.048 209.496H675.688C676.552 209.496 677.128 210.12 677.128 210.936C677.128 212.568 675.208 211.512 675.208 216.168V236.28C675.208 240.936 677.128 239.88 677.128 241.512C677.128 242.376 676.552 243 675.688 243H667.048C666.184 243 665.608 242.376 665.608 241.512C665.608 239.88 667.528 240.936 667.528 236.28V228.072H656.056V236.28C656.056 240.936 657.928 239.88 657.928 241.512C657.928 242.376 657.352 243 656.536 243H647.896ZM686.525 229.128C690.605 228.984 693.341 226.776 693.341 223.992C693.341 221.928 691.901 221.016 690.653 221.016C688.061 221.016 686.573 225.24 686.525 229.128ZM702.125 237.528C700.637 241.176 696.317 244.056 690.893 244.056C683.741 244.056 678.845 238.92 678.845 230.76C678.845 222.936 683.453 218.568 690.605 218.568C696.365 218.568 701.117 221.352 701.117 225.144C701.117 229.272 695.357 231.912 686.717 231.816C687.485 236.424 690.509 239.256 694.781 239.256C697.325 239.256 699.725 238.248 700.781 236.904C701.213 236.376 701.645 236.184 701.981 236.184C702.413 236.184 702.557 236.472 702.125 237.528ZM705.743 243C704.879 243 704.303 242.376 704.303 241.512C704.303 239.88 706.223 240.936 706.223 236.28V226.008C706.223 224.088 703.823 225.384 703.823 224.184C703.823 222.552 708.527 219.048 711.407 219.048C712.751 219.048 713.903 219.816 713.903 220.968V221.4C714.863 219.624 716.495 218.568 718.511 218.568C721.727 218.568 724.415 221.16 724.415 224.472C724.415 226.728 723.167 228.024 721.055 228.024C716.735 228.024 718.223 222.744 716.015 222.792C715.151 222.792 714.335 223.608 713.903 225.048V236.28C713.903 240.936 715.775 239.88 715.775 241.512C715.775 242.376 715.199 243 714.383 243H705.743ZM743.718 219.048C746.79 219.048 749.094 220.68 750.006 223.224C752.118 220.776 754.95 219.048 758.07 219.048C762.054 219.048 764.79 221.736 764.79 225.768V236.04C764.79 237.96 767.19 236.664 767.19 237.864C767.19 239.496 762.486 243 759.606 243C758.262 243 757.158 242.232 757.158 241.08V227.688C757.158 226.008 755.958 224.856 754.182 224.856C752.886 224.856 751.59 225.432 750.438 226.488V236.28C750.438 240.936 752.358 239.88 752.358 241.512C752.358 242.376 751.782 243 750.918 243H742.278C741.414 243 740.838 242.376 740.838 241.512C740.838 239.88 742.758 240.936 742.758 236.28V227.688C742.758 226.008 741.558 224.856 739.782 224.856C738.342 224.856 736.758 225.624 735.606 226.968V236.28C735.606 240.936 737.478 239.88 737.478 241.512C737.478 242.376 736.902 243 736.086 243H727.446C726.582 243 726.006 242.376 726.006 241.512C726.006 239.88 727.926 240.936 727.926 236.28V226.008C727.926 224.088 725.526 225.384 725.526 224.184C725.526 222.552 730.23 219.048 733.11 219.048C734.454 219.048 735.606 219.816 735.606 220.968V223.272C737.67 220.776 740.55 219.048 743.718 219.048ZM783.917 235.512V227.256C779.261 228.6 776.285 232.152 776.285 236.328C776.285 238.872 777.389 240.36 778.877 240.36C780.557 240.36 782.573 238.44 783.917 235.512ZM783.917 241.56V240.696C781.949 242.808 779.213 244.056 775.997 244.056C771.677 244.056 768.605 241.8 768.605 238.056C768.605 232.728 774.653 227.736 783.917 225.288C783.869 222.168 782.861 220.68 780.845 220.68C776.381 220.68 778.781 228.024 773.741 228.024C771.725 228.024 770.477 226.872 770.477 224.904C770.477 221.16 775.085 218.52 781.181 218.52C787.517 218.52 791.597 221.352 791.597 226.2V236.52C791.597 238.44 793.997 237.144 793.997 238.344C793.997 239.976 789.293 243.48 786.413 243.48C785.069 243.48 783.917 242.712 783.917 241.56ZM797.196 243C796.332 243 795.756 242.376 795.756 241.512C795.756 239.88 797.676 240.936 797.676 236.28V226.008C797.676 224.088 795.276 225.384 795.276 224.184C795.276 222.552 799.98 219.048 802.86 219.048C804.204 219.048 805.356 219.816 805.356 220.968V223.272C807.42 220.776 810.3 219.048 813.468 219.048C817.452 219.048 820.188 221.736 820.188 225.768V236.04C820.188 237.96 822.588 236.664 822.588 237.864C822.588 239.496 817.884 243 815.004 243C813.66 243 812.508 242.232 812.508 241.08V227.688C812.508 226.008 811.308 224.856 809.532 224.856C808.092 224.856 806.508 225.624 805.356 226.968V236.28C805.356 240.936 807.228 239.88 807.228 241.512C807.228 242.376 806.652 243 805.836 243H797.196ZM835.966 220.968C833.518 220.968 831.886 225.192 831.886 231.432C831.886 237.624 833.518 241.656 835.918 241.656C838.414 241.656 840.094 237.576 840.094 231.336C840.094 225.144 838.462 220.968 835.966 220.968ZM836.014 244.056C827.95 244.056 824.206 239.016 824.206 231.288C824.206 223.656 827.854 218.568 835.918 218.568C844.03 218.568 847.774 223.656 847.774 231.432C847.774 239.064 844.126 244.056 836.014 244.056ZM857.571 223.656C857.571 228.12 871.203 228.936 871.203 236.232C871.203 240.36 866.883 243.432 860.595 243.432C854.979 243.432 850.851 240.936 850.851 237.288C850.851 235.224 852.147 233.976 854.211 233.976C859.059 233.976 856.563 240.984 860.547 240.984C862.227 240.984 863.523 239.64 863.523 238.248C863.523 233.784 849.891 233.304 849.891 225.864C849.891 221.688 854.211 218.568 860.499 218.568C866.067 218.568 870.243 221.064 870.243 224.712C870.243 226.776 868.947 228.024 866.883 228.024C862.035 228.024 864.531 221.016 860.595 221.016C858.867 221.016 857.571 222.312 857.571 223.656Z" fill="#2B361C"/>
<path d="M846.521 81.3699L847.69 96.1498L859.121 105.592L845.425 111.271L839.977 125.059L830.344 113.789L815.547 112.869L823.289 100.225L819.592 85.8673L834.009 89.3231L846.521 81.3699Z" fill="#626C3E"/>
<path d="M882.466 129.735L877.702 143.775L884.474 156.964L869.649 156.772L859.198 167.288L854.8 153.129L841.569 146.439L853.675 137.881L855.949 123.23L867.83 132.099L882.466 129.735Z" fill="#626C3E"/>
</svg>
